<?xml version="1.0" encoding="utf-8"?>
<!-- Generator: Adobe Illustrator 23.0.1, SVG Export Plug-In . SVG Version: 6.00 Build 0)  -->
<svg version="1.1" id="Layer_1" xmlns="http://www.w3.org/2000/svg" xmlns:xlink="http://www.w3.org/1999/xlink" x="0px" y="0px"
	 viewBox="0 0 143.3 58.5" style="enable-background:new 0 0 143.3 58.5;" xml:space="preserve">
<style type="text/css">
	.st0{fill:#64A70B;}
	.st1{fill:#205C40;}
</style>
<g>
	<path class="st0" d="M45.9,0c-7,0-9.5,5.8-10.1,7.3C41,5.8,41,4.6,44,3.1c3.8-1.8,7.9,0.3,7.9,0.3C48,2.6,46,2.3,42.5,5.1
		c-2.4,2-5,2.6-6.3,2.8c1.2,0.8,4.7,2.5,10.4-0.8C53.7,3,58,8.1,58,8.1S55.7,0,45.9,0z"/>
	<path class="st1" d="M23.8,29.3h2.8V7.1h0l-8,21c-0.3,0.8-1,1.3-1.9,1.3c-0.8,0-1.6-0.4-1.9-1.3l-7.8-21H6.8v22.2h2.8v3.1H0.1v-3.1
		h3.2v-24H0.1V2.2h7.2c1,0,1.6,0.5,2,1.4l5.7,15.1c0.7,1.9,1.8,5.3,1.8,5.3h0.2c0,0,1.2-3.3,1.9-5.2l5.7-15.2c0.4-0.9,1-1.4,2-1.4h7
		v3.1h-3.2v24h3.2v3.1h-9.6V29.3z"/>
	<path class="st1" d="M44.5,32.3h-8.1v-2.8h2.3v-15h-2.3v-2.8h5.3c0.3,0,0.5,0.2,0.5,0.5v17.3h2.2V32.3z"/>
	<path class="st1" d="M68.4,32.3h-3.7c-1.3,0-1.8-0.5-1.8-1.8v-2.3h0c-0.8,2.1-3.2,4.4-7,4.4c-5.6,0-9.4-4.2-9.4-10.7
		c0-6.2,3.8-10.5,9.5-10.5c3.7,0,5.9,2,6.8,3.9h0c0,0,0-0.7,0-1.2V5h-2.3V2.2h5.3c0.3,0,0.5,0.2,0.5,0.5v26.8h2.2V32.3z M62.7,22
		c0-4.9-2.9-7.6-6.4-7.6c-3.6,0-6.5,2.9-6.5,7.6c0,4.7,2.7,7.8,6.5,7.8C59.9,29.7,62.7,26.7,62.7,22z"/>
	<path class="st1" d="M100.7,14.5h-2.3l-5.6,17c-0.2,0.6-0.4,0.9-1,0.9h-2.4c-0.6,0-0.9-0.3-1-0.9l-3.5-14.1h-0.1L81,31.4
		c-0.1,0.6-0.4,0.9-1,0.9h-2.4c-0.6,0-0.8-0.3-1-0.9l-5.6-17h-2.2v-2.8h7.8v2.8h-1.9l4.2,14.1h0.1l3.7-14.1H81v-2.8h7.3v2.8h-1.5
		l3.6,14.1h0.1l4.2-14.1h-1.9v-2.8h7.8V14.5z"/>
	<path class="st1" d="M122.7,32.3h-3.7c-1.2,0-1.8-0.5-1.8-1.8v-2.4h-0.1c-1,2.2-3,4.5-7,4.5c-5.7,0-9.4-4.4-9.4-10.7
		c0-6.5,3.9-10.6,9.4-10.6c4,0,6.1,2,7,3.8h0v-3.5h3.2v17.8h2.3V32.3z M117.1,22c0-4.9-2.9-7.7-6.4-7.7c-3.7,0-6.5,2.9-6.5,7.7
		c0,4.6,2.8,7.6,6.5,7.6C114.2,29.7,117.1,26.8,117.1,22z"/>
	<path class="st1" d="M126.8,37c0.4,0.3,2.2,2.1,6.4,2.1c3.7,0,6.9-1.6,6.9-6V29H140c-0.5,1-2.1,3.6-6.6,3.6s-7.3-2.9-7.3-7.3
		l0-10.8h-2.3v-2.8h4c1.3,0,1.8,0.5,1.8,1.8v11c0,3.1,1.5,5.1,4.6,5.1c4.2,0,5.5-3.5,5.5-3.6V14.5h-2.2v-2.8h5.2
		c0.3,0,0.5,0.2,0.5,0.5v20.9c0,6.2-4.3,9-10,9c-5.5,0-7.8-2.5-8.1-2.8L126.8,37z"/>
	<g>
		<path class="st0" d="M0.3,53.3C0.1,53.3,0,53.2,0,53v-1.1c0-0.2,0.1-0.3,0.3-0.3H2V38.9H0.3c-0.2,0-0.3-0.1-0.3-0.3v-1.1
			c0-0.2,0.1-0.3,0.3-0.3h5.3c0.2,0,0.3,0.1,0.3,0.3v1c0,0.2-0.1,0.3-0.3,0.3H3.9v12.7H11v-2.2c0-0.2,0.1-0.3,0.3-0.3h1.3
			c0.2,0,0.3,0.1,0.3,0.3V53c0,0.2-0.1,0.3-0.3,0.3H0.3z"/>
		<path class="st0" d="M13.9,47.8c0-3.5,2.5-5.6,5.5-5.6c3.1,0,5.5,2.1,5.5,5.6c0,3.5-2.4,5.7-5.5,5.7
			C16.3,53.5,13.9,51.3,13.9,47.8z M23.2,47.8c0-2.5-1.7-4-3.7-4c-1.9,0-3.7,1.5-3.7,4c0,2.5,1.7,4.1,3.7,4.1S23.2,50.3,23.2,47.8z"
			/>
		<path class="st0" d="M27.3,57c-0.1-0.1-0.2-0.3-0.1-0.4l0.6-0.8c0.1-0.1,0.2-0.1,0.4,0c0.2,0.2,1.2,1.2,3.4,1.2
			c2,0,3.6-0.9,3.6-3.2v-2.5c-0.5,1.1-1.7,2.3-3.6,2.3c-3,0-5-2.4-5-5.7c0-3.4,2.1-5.6,5-5.6c2,0,3.2,1.1,3.7,2.2h0l0-1.8
			c0-0.2,0.1-0.3,0.3-0.3h2.6c0.2,0,0.3,0.1,0.3,0.3v1c0,0.2-0.1,0.3-0.3,0.3h-1.2v9.9c0,3.3-2.3,4.8-5.3,4.8
			C28.7,58.5,27.5,57.2,27.3,57z M35.2,47.8c0-2.6-1.5-4.1-3.4-4.1c-1.9,0-3.4,1.6-3.4,4.1c0,2.4,1.5,4,3.4,4
			C33.7,51.9,35.2,50.4,35.2,47.8z"/>
		<path class="st0" d="M40.3,53.3c-0.2,0-0.3-0.1-0.3-0.3v-1c0-0.2,0.1-0.3,0.3-0.3h1.2v-8h-1.2c-0.2,0-0.3-0.1-0.3-0.3v-1
			c0-0.2,0.1-0.3,0.3-0.3h2.8c0.2,0,0.3,0.1,0.3,0.3v9.2h1.2c0.2,0,0.3,0.1,0.3,0.3v1c0,0.2-0.1,0.3-0.3,0.3H40.3z M42.5,40.3
			c-0.7,0-1.3-0.6-1.3-1.3c0-0.7,0.6-1.3,1.3-1.3c0.7,0,1.3,0.6,1.3,1.3C43.8,39.7,43.2,40.3,42.5,40.3z"/>
		<path class="st0" d="M48.1,51.8L48.1,51.8c0,0,0,1.1,0,1.2c0,0.2-0.1,0.3-0.3,0.3H47c-0.2,0-0.3-0.1-0.3-0.3l0-3.3
			c0-0.2,0.1-0.3,0.3-0.3h1c0.2,0,0.3,0.1,0.3,0.3v0.4c0,0,0.6,1.8,3.2,1.8c1.6,0,2.4-0.6,2.4-1.6c0-2.3-6.7-1.1-6.7-4.9
			c0-2,1.6-3.2,3.7-3.2c1.6,0,2.6,0.6,3.2,1.3h0c0,0-0.1-0.8-0.1-0.8c0-0.2,0.1-0.3,0.3-0.3h0.8c0.2,0,0.3,0.1,0.3,0.3v3.1
			c0,0.2-0.1,0.3-0.3,0.3h-1c-0.2,0-0.3-0.1-0.3-0.3v-0.3c0-0.6-0.7-1.7-2.8-1.7c-1.1,0-2.1,0.5-2.1,1.6c0,2.5,6.8,1.2,6.8,5
			c0,1.6-1.1,3.1-4.1,3.1C49.3,53.5,48.3,52.2,48.1,51.8z"/>
		<path class="st0" d="M64.4,52.2c0.1,0.1,0.1,0.3,0,0.4c-0.2,0.2-0.9,0.9-2.2,0.9c-2.2,0-3.6-1.3-3.6-3.8v-5.8h-1.3
			c-0.2,0-0.3-0.1-0.3-0.3v-0.9c0-0.2,0.1-0.3,0.3-0.3h1.3v-2.2c0-0.2,0.1-0.3,0.3-0.3h1.2c0.2,0,0.3,0.1,0.3,0.3v2.2h2.8
			c0.2,0,0.3,0.1,0.3,0.3v0.9c0,0.2-0.1,0.3-0.3,0.3h-2.8v5.8c0,1.5,0.7,2.3,1.9,2.3c0.7,0,1.1-0.4,1.2-0.4c0.2-0.1,0.3-0.1,0.4,0
			L64.4,52.2z"/>
		<path class="st0" d="M66,53.3c-0.2,0-0.3-0.1-0.3-0.3v-1c0-0.2,0.1-0.3,0.3-0.3h1.2v-8H66c-0.2,0-0.3-0.1-0.3-0.3v-1
			c0-0.2,0.1-0.3,0.3-0.3h2.8c0.2,0,0.3,0.1,0.3,0.3v9.2h1.2c0.2,0,0.3,0.1,0.3,0.3v1c0,0.2-0.1,0.3-0.3,0.3H66z M68.2,40.3
			c-0.7,0-1.3-0.6-1.3-1.3c0-0.7,0.6-1.3,1.3-1.3c0.7,0,1.3,0.6,1.3,1.3C69.5,39.7,68.9,40.3,68.2,40.3z"/>
		<path class="st0" d="M81.7,50.7c0.2,0.1,0.2,0.3,0.1,0.4c-0.3,0.5-1.8,2.3-4.8,2.3c-3,0-5.5-2.1-5.5-5.7c0-3.6,2.6-5.6,5.3-5.6
			c2,0,3.1,1,3.5,1.6h0v-1.2c0-0.2,0.1-0.3,0.3-0.3h0.8c0.2,0,0.3,0.1,0.3,0.3v3.8c0,0.2-0.1,0.3-0.3,0.3h-1c-0.2,0-0.3-0.1-0.3-0.3
			V46c0-1-1.2-2.3-3.2-2.3c-1.7,0-3.6,1.4-3.6,4c0,2.6,1.9,4.1,3.7,4.1c1.9,0,3.2-1.2,3.5-1.7c0.1-0.2,0.2-0.2,0.4-0.1L81.7,50.7z"
			/>
		<path class="st0" d="M85,51.8L85,51.8c0,0,0,1.1,0,1.2c0,0.2-0.1,0.3-0.3,0.3h-0.9c-0.2,0-0.3-0.1-0.3-0.3l0-3.3
			c0-0.2,0.1-0.3,0.3-0.3h1c0.2,0,0.3,0.1,0.3,0.3v0.4c0,0,0.6,1.8,3.2,1.8c1.6,0,2.4-0.6,2.4-1.6c0-2.3-6.7-1.1-6.7-4.9
			c0-2,1.6-3.2,3.7-3.2c1.6,0,2.6,0.6,3.2,1.3h0c0,0-0.1-0.8-0.1-0.8c0-0.2,0.1-0.3,0.3-0.3h0.8c0.2,0,0.3,0.1,0.3,0.3v3.1
			c0,0.2-0.1,0.3-0.3,0.3h-1c-0.2,0-0.3-0.1-0.3-0.3v-0.3c0-0.6-0.7-1.7-2.8-1.7c-1.1,0-2.1,0.5-2.1,1.6c0,2.5,6.8,1.2,6.8,5
			c0,1.6-1.1,3.1-4.1,3.1C86.2,53.5,85.2,52.2,85,51.8z"/>
	</g>
</g>
</svg>
