<?xml version="1.0" encoding="utf-8"?>
<!-- Generator: Adobe Illustrator 23.0.1, SVG Export Plug-In . SVG Version: 6.00 Build 0)  -->
<svg version="1.1" id="Layer_1" xmlns="http://www.w3.org/2000/svg" xmlns:xlink="http://www.w3.org/1999/xlink" x="0px" y="0px"
	 viewBox="0 0 520.1 153" style="enable-background:new 0 0 520.1 153;" xml:space="preserve">
<style type="text/css">
	.st0{fill:#FFFFFF;}
</style>
<path class="st0" d="M166.7,0c-25.5,0-34.6,21-36.5,26.3c18.7-5.3,18.6-9.7,29.5-15c13.7-6.7,28.6,1,28.6,1c-14-2.9-21.4-4.1-34,6.3
	c-8.8,7.2-18.1,9.5-22.9,10.2c4.3,2.9,17.2,9.2,37.9-2.8c25.8-15,41.2,3.5,41.2,3.5S202,0,166.7,0z"/>
<path class="st0" d="M86.2,106.2h10.2V25.8h-0.2l-29,76.2c-1.2,3-3.5,4.6-6.9,4.6c-3,0-5.8-1.5-7-4.6L25,25.8h-0.3v80.5h10.2v11.1H0
	v-11.1h11.7V19.1H0V7.9h26.1c3.8,0,5.9,2,7.2,5.2L53.8,68c2.6,6.9,6.6,19.2,6.6,19.2h0.6c0,0,4.3-11.9,7-18.9l20.6-55.2
	c1.4-3.2,3.5-5.2,7.3-5.2h25.3v11.1h-11.6v87.2h11.6v11.1H86.2V106.2z"/>
<path class="st0" d="M161.4,117.3h-29.3v-10.2h8.5V52.6h-8.5V42.4h19.2c1.2,0,2,0.6,2,1.8v62.9h8.1V117.3z"/>
<path class="st0" d="M248,117.3h-13.3c-4.6,0-6.7-1.7-6.7-6.4v-8.5h-0.2c-2.9,7.5-11.6,16-25.4,16c-20.3,0-34.3-15.2-34.3-39
	c0-22.4,13.7-38.1,34.4-38.1c13.6,0,21.5,7.2,24.7,14.2h0.2c0,0-0.2-2.6-0.2-4.3V18.2h-8.5V7.9h19.4c1.2,0,1.8,0.6,1.8,1.8v97.4h8.1
	V117.3z M227.5,79.7c0-17.8-10.7-27.7-23.2-27.7c-13.1,0-23.6,10.4-23.6,27.6c0,16.9,9.9,28.2,23.6,28.2
	C217.4,107.7,227.5,96.9,227.5,79.7z"/>
<path class="st0" d="M365.3,52.6h-8.5l-20.3,61.6c-0.8,2.1-1.5,3.2-3.7,3.2h-8.7c-2.3,0-3.4-0.9-3.8-3.2l-12.8-51h-0.5l-13.1,51
	c-0.5,2.3-1.5,3.2-3.8,3.2h-8.7c-2.1,0-2.9-1.1-3.7-3.2l-20.4-61.6h-8.1V42.4h28.3v10.2h-6.9l15.2,51.4h0.3l13.4-51.4H294V42.4h26.7
	v10.2h-5.3l13,51.4h0.3l15.2-51.4H337V42.4h28.3V52.6z"/>
<path class="st0" d="M445.5,117.3h-13.3c-4.4,0-6.6-1.7-6.6-6.4v-8.8h-0.3c-3.5,7.9-11,16.3-25.4,16.3c-20.9,0-34.3-16.2-34.3-38.7
	c0-23.5,14.2-38.4,34.3-38.4c14.5,0,22.2,7.2,25.3,13.9h0.2V42.4h11.6v64.8h8.5V117.3z M424.9,79.9c0-17.8-10.5-27.9-23.2-27.9
	c-13.3,0-23.6,10.7-23.6,28c0,16.8,10.2,27.7,23.6,27.7C414.5,107.7,424.9,97.2,424.9,79.9z"/>
<path class="st0" d="M460.4,134.4c1.5,1.1,8.1,7.6,23.3,7.6c13.6,0,25-5.9,25-21.8v-14.9h-0.3c-1.8,3.5-7.5,13.1-23.9,13.1
	c-16.5,0-26.4-10.5-26.4-26.5l-0.2-39.3h-8.5V42.4h14.5c4.6,0,6.7,1.7,6.7,6.4v40.1c0,11.4,5.5,18.6,16.8,18.6
	c15.2,0,20.1-12.6,20.1-13V52.6h-8.1V42.4h18.9c1.1,0,1.8,0.6,1.8,1.8v76c0,22.6-15.5,32.8-36.3,32.8c-20,0-28.3-9.1-29.6-10.1
	L460.4,134.4z"/>
</svg>
